<svg width="337" height="48" viewBox="0 0 337 48" fill="none" xmlns="http://www.w3.org/2000/svg">
<path d="M6.66089 17.82C6.31204 17.7387 5.9757 17.6109 5.66089 17.44C5.35881 17.2702 5.099 17.0343 4.90088 16.75C4.69908 16.4561 4.5942 16.1065 4.60089 15.75C4.59723 15.4944 4.65192 15.2413 4.76086 15.01C4.86416 14.81 5.0071 14.6331 5.18091 14.49C5.35883 14.3568 5.5584 14.2553 5.77087 14.19C5.98871 14.1268 6.21411 14.0932 6.44092 14.09H7.03088C7.21194 14.099 7.39231 14.1191 7.57092 14.15L8.12091 14.23L8.72089 14.34L8.95087 11.78C8.65087 11.73 8.38092 11.69 8.13092 11.67L7.43091 11.59H6.8009H6.18091C5.61684 11.5873 5.05498 11.6613 4.51086 11.81C3.9871 11.9515 3.49275 12.1852 3.0509 12.5C2.63256 12.8126 2.29063 13.2161 2.0509 13.68C1.6837 14.3853 1.56394 15.1935 1.71082 15.975C1.85769 16.7566 2.26268 17.4661 2.8609 17.99H0.640869V20.56H9.2309V18H7.89087C7.5038 18.0013 7.11791 17.9577 6.74091 17.87" fill="#383838"/>
<path d="M14.9507 2.90991H11.7607V20.52H14.9507V2.90991Z" fill="#383838"/>
<path d="M49.8408 20.48H50.0908H50.2808H69.0408V2.90002H65.8608V17.82H61.8608C61.7576 17.8166 61.6571 17.7861 61.5694 17.7318C61.4817 17.6774 61.4097 17.6009 61.3608 17.51C61.207 17.2399 61.0893 16.9508 61.0107 16.65C60.8985 16.2492 60.8117 15.8417 60.7508 15.43C60.6708 14.97 60.6008 14.43 60.5208 13.98C60.4295 13.3926 60.2579 12.8206 60.0107 12.28C59.7831 11.7823 59.4604 11.3339 59.0608 10.96C58.6565 10.5726 58.1764 10.273 57.6508 10.08C57.0474 9.86627 56.4108 9.76131 55.7708 9.77002C55.1193 9.76631 54.4691 9.82998 53.8307 9.96002C53.2574 10.0934 52.6875 10.2433 52.1208 10.41V12.93C52.3785 12.8215 52.6423 12.7281 52.9108 12.65C53.2008 12.57 53.4808 12.51 53.7508 12.46C54.0087 12.4101 54.2691 12.3733 54.5308 12.35C54.7372 12.3371 54.9443 12.3371 55.1508 12.35C55.5869 12.326 56.0189 12.4454 56.3808 12.69C56.6948 12.9262 56.9513 13.2305 57.1308 13.58C57.3244 13.9697 57.4656 14.3833 57.5508 14.81C57.6408 15.27 57.7208 15.73 57.7908 16.18C57.8369 16.4893 57.9105 16.7938 58.0107 17.09C58.0957 17.3537 58.1994 17.611 58.3208 17.86H50.2508C49.6868 17.8641 49.1239 17.8106 48.5708 17.7C48.0635 17.6026 47.5744 17.4272 47.1208 17.18C47.1828 16.95 47.2295 16.7161 47.2607 16.48C47.292 16.2446 47.3087 16.0075 47.3108 15.77C47.307 15.3497 47.2601 14.9308 47.1708 14.52C47.0739 14.0888 46.9297 13.6696 46.7408 13.27C46.5464 12.8631 46.3047 12.4804 46.0208 12.13C45.7338 11.7679 45.3971 11.448 45.0208 11.18C44.6049 10.9074 44.1542 10.6921 43.6808 10.54C43.1433 10.3742 42.5832 10.2932 42.0208 10.3C41.5359 10.3115 41.0548 10.3888 40.5908 10.53C40.0011 10.7186 39.4542 11.021 38.9808 11.42C38.3535 11.9652 37.8168 12.6065 37.3907 13.32C36.7985 14.3351 36.3445 15.4247 36.0408 16.56C35.9357 16.9564 35.704 17.3076 35.3808 17.56C35.0678 17.77 34.6976 17.8783 34.3208 17.87H23.0408V10.46H19.8508V18.91C19.8568 19.4159 19.8166 19.9213 19.7308 20.42C19.6554 20.8247 19.4839 21.2054 19.2308 21.53C18.9631 21.8672 18.6208 22.1377 18.2308 22.32C17.6814 22.5667 17.1037 22.7446 16.5107 22.85L16.9208 25.57C17.7317 25.4528 18.529 25.2551 19.3008 24.98C19.9398 24.7487 20.535 24.4106 21.0608 23.98C21.5541 23.5834 21.9565 23.0856 22.2408 22.52C22.5609 21.8915 22.7802 21.2166 22.8907 20.52H34.7508C35.3641 20.554 35.9759 20.4314 36.5287 20.1638C37.0815 19.8961 37.5571 19.4921 37.9108 18.99C38.1308 19.18 38.3808 19.38 38.6508 19.58C38.9644 19.7943 39.2996 19.9752 39.6508 20.12C40.0465 20.2914 40.4586 20.4221 40.8808 20.51C41.3917 20.6069 41.9108 20.6538 42.4308 20.65C43.1833 20.6672 43.9306 20.5204 44.6208 20.22C45.2261 19.9578 45.7682 19.5692 46.2108 19.08C46.4421 19.3006 46.6969 19.4951 46.9708 19.66C47.5838 20.0346 48.2625 20.2892 48.9708 20.41C49.2654 20.4543 49.5628 20.4777 49.8608 20.48V20.48M44.2408 16.77C44.1264 17.0501 43.9442 17.2975 43.7108 17.49C43.4615 17.6801 43.1755 17.8164 42.8708 17.89C42.5149 17.9818 42.1483 18.0255 41.7808 18.02C41.4951 18.0187 41.2104 17.9885 40.9308 17.93C40.6367 17.8699 40.3462 17.7931 40.0608 17.7C39.8029 17.6128 39.5522 17.5058 39.3108 17.38C39.1311 17.2965 38.9657 17.1851 38.8208 17.05C38.9297 16.5223 39.0801 16.004 39.2708 15.5C39.4446 15.0253 39.6727 14.5723 39.9507 14.15C40.1746 13.7615 40.4738 13.4215 40.8307 13.15C41.1423 12.9163 41.5213 12.79 41.9108 12.79C42.2929 12.7814 42.6701 12.8783 43.0008 13.07C43.3026 13.264 43.5697 13.5074 43.7908 13.79C43.9974 14.0736 44.1593 14.3872 44.2708 14.72C44.3682 15.0173 44.4222 15.3272 44.4308 15.64C44.4377 16.0089 44.3732 16.3756 44.2408 16.72" fill="#383838"/>
<path d="M75.4507 2.90991H72.2607V20.52H75.4507V2.90991Z" fill="#383838"/>
<path d="M145.741 3.29999C145.898 3.46537 146.089 3.59498 146.301 3.67999C146.555 3.78088 146.827 3.82855 147.101 3.82001C147.432 3.81997 147.757 3.7301 148.041 3.56C148.287 3.43089 148.504 3.25409 148.681 3.03998C148.832 3.27147 149.043 3.45804 149.291 3.58002C149.577 3.71894 149.893 3.78746 150.211 3.77997C150.456 3.79425 150.702 3.75415 150.93 3.66254C151.158 3.57092 151.363 3.43007 151.531 3.25C151.866 2.84712 152.037 2.33319 152.011 1.81V0H151.181V2C151.192 2.13875 151.171 2.27815 151.121 2.40796C151.071 2.53776 150.992 2.65465 150.891 2.75C150.67 2.90858 150.403 2.98944 150.131 2.97998C149.868 2.98367 149.61 2.8992 149.401 2.73999C149.289 2.65325 149.201 2.54038 149.143 2.41132C149.086 2.28225 149.061 2.14096 149.071 2V0.320007H148.281V1.90002C148.292 2.05043 148.269 2.2014 148.214 2.34167C148.158 2.48195 148.072 2.60788 147.961 2.71002C147.769 2.8899 147.514 2.98687 147.251 2.97998C147.115 2.98033 146.98 2.96011 146.851 2.91998C146.724 2.88678 146.605 2.82904 146.501 2.75C146.389 2.66525 146.302 2.551 146.251 2.41998C146.185 2.2583 146.154 2.08443 146.161 1.90997V0.0499878H145.321V1.98999C145.321 2.23745 145.358 2.48349 145.431 2.71997C145.504 2.93424 145.619 3.13154 145.771 3.29999" fill="#383838"/>
<path d="M118.901 22.5601C118.708 22.4782 118.5 22.4373 118.291 22.4401C118.082 22.4382 117.874 22.479 117.681 22.5601C117.492 22.6365 117.321 22.7524 117.181 22.9001C117.033 23.0419 116.915 23.2128 116.836 23.402C116.757 23.5913 116.718 23.7949 116.721 24.0001C116.718 24.2128 116.759 24.4237 116.841 24.6201C116.921 24.804 117.037 24.9704 117.181 25.1101C117.321 25.2577 117.492 25.3737 117.681 25.4501C117.874 25.5311 118.082 25.572 118.291 25.5701C118.5 25.5728 118.708 25.532 118.901 25.4501C119.09 25.3737 119.26 25.2577 119.401 25.1101C119.545 24.9704 119.661 24.804 119.741 24.6201C119.9 24.2256 119.9 23.7846 119.741 23.3901C119.661 23.2062 119.545 23.0397 119.401 22.9001C119.26 22.7524 119.09 22.6365 118.901 22.5601" fill="#383838"/>
<path d="M115.881 20.5599H122.201V10.46H119.041V17.8199H90.2509C90.0341 17.8248 89.8179 17.7944 89.6108 17.7299C89.4285 17.6725 89.2681 17.5609 89.1508 17.4099C89.0222 17.2187 88.9306 17.005 88.8809 16.7799C88.8158 16.4507 88.7857 16.1155 88.7908 15.7799V2.90991H85.6108V16.4399C85.6035 17.001 85.6776 17.5601 85.8308 18.0999C85.9588 18.5772 86.1949 19.0186 86.5208 19.39C86.8489 19.756 87.2606 20.0373 87.7208 20.21C88.2825 20.4232 88.8803 20.5251 89.4808 20.5099H115.881V20.5599Z" fill="#383838"/>
<path d="M123.041 22.92C122.896 22.7724 122.724 22.6556 122.533 22.5765C122.342 22.4974 122.137 22.4578 121.931 22.46C121.718 22.4582 121.507 22.499 121.311 22.58C121.126 22.6592 120.96 22.7748 120.821 22.92C120.677 23.0596 120.561 23.2261 120.481 23.41C120.321 23.8045 120.321 24.2456 120.481 24.64C120.561 24.824 120.677 24.9904 120.821 25.13C120.96 25.2752 121.126 25.3908 121.311 25.47C121.507 25.551 121.718 25.5919 121.931 25.5901C122.137 25.5923 122.342 25.5526 122.533 25.4735C122.724 25.3945 122.896 25.2776 123.041 25.13C123.182 24.99 123.294 24.8235 123.371 24.64C123.53 24.2456 123.53 23.8045 123.371 23.41C123.294 23.2265 123.182 23.06 123.041 22.92Z" fill="#383838"/>
<path d="M128.591 2.90991H125.401V20.52H128.591V2.90991Z" fill="#383838"/>
<path d="M163.501 20.56H169.601V2.90002H166.411V17.82H163.491C163.008 17.8215 162.526 17.7813 162.051 17.7C161.605 17.6279 161.168 17.5038 160.751 17.33C160.751 17.19 160.751 17.05 160.751 16.91C160.751 16.77 160.751 16.62 160.751 16.48V10.48H157.561V16.06C157.567 16.3493 157.536 16.6382 157.471 16.92C157.427 17.1178 157.338 17.3027 157.211 17.46C157.084 17.5989 156.922 17.6994 156.741 17.75C156.516 17.8108 156.284 17.8378 156.051 17.83C155.62 17.8291 155.193 17.7651 154.781 17.64C154.322 17.5049 153.88 17.3205 153.461 17.09C153.461 16.99 153.461 16.89 153.461 16.79C153.461 16.69 153.461 16.58 153.461 16.49V11.8H150.271V16.06C150.274 16.3487 150.248 16.6369 150.191 16.92C150.144 17.1185 150.052 17.3035 149.921 17.46C149.797 17.6016 149.633 17.7026 149.451 17.75C149.226 17.8108 148.994 17.8378 148.761 17.83C148.324 17.8292 147.889 17.7652 147.471 17.64C147.004 17.496 146.555 17.3015 146.131 17.06C146.141 16.9636 146.141 16.8664 146.131 16.77V12.91H143.041V16.06C143.047 16.3493 143.016 16.6382 142.951 16.92C142.907 17.1178 142.818 17.3027 142.691 17.46C142.567 17.6016 142.403 17.7026 142.221 17.75C141.996 17.8108 141.764 17.8378 141.531 17.83H136.631V10.46H133.441V18.92C133.447 19.4193 133.407 19.9181 133.321 20.41C133.246 20.8177 133.074 21.2017 132.821 21.53C132.556 21.8699 132.213 22.1409 131.821 22.32C131.268 22.5665 130.687 22.7444 130.091 22.85L130.511 25.57C131.322 25.4528 132.119 25.2551 132.891 24.98C133.53 24.7487 134.125 24.4106 134.651 23.98C135.141 23.5937 135.546 23.1103 135.841 22.56C136.161 21.9315 136.38 21.2566 136.491 20.56H142.651C143.247 20.5796 143.839 20.4598 144.381 20.21C144.821 20.0034 145.202 19.6907 145.491 19.3C146.011 19.6894 146.587 19.9964 147.201 20.21C147.913 20.4497 148.66 20.568 149.411 20.56H149.951C150.543 20.5838 151.132 20.4673 151.671 20.22C152.106 20.0115 152.487 19.7031 152.781 19.32C153.294 19.7085 153.869 20.0093 154.481 20.21C155.182 20.4507 155.919 20.5691 156.661 20.56H157.201C157.734 20.5748 158.264 20.483 158.761 20.29C159.167 20.1245 159.533 19.872 159.831 19.55C160.299 19.8721 160.816 20.1184 161.361 20.28C162.039 20.4783 162.744 20.5727 163.451 20.56H163.501Z" fill="#383838"/>
<path d="M175.981 2.90991H172.791V20.52H175.981V2.90991Z" fill="#383838"/>
<path d="M192.361 6.31995C192.505 6.46756 192.678 6.5844 192.869 6.66345C193.06 6.74251 193.264 6.78211 193.471 6.77991C193.683 6.78177 193.894 6.74097 194.091 6.65991C194.458 6.49204 194.753 6.19742 194.921 5.82996C195.002 5.63339 195.043 5.42257 195.041 5.20996C195.043 5.00348 195.003 4.79868 194.924 4.60791C194.845 4.41715 194.728 4.24432 194.581 4.09992C194.439 3.96099 194.273 3.8492 194.091 3.76996C193.894 3.68891 193.683 3.64811 193.471 3.64996C193.262 3.64808 193.054 3.68891 192.861 3.76996C192.674 3.8449 192.503 3.95706 192.361 4.09973C192.218 4.24241 192.106 4.41258 192.031 4.59992C191.947 4.79234 191.902 4.99992 191.901 5.20996C191.902 5.42323 191.947 5.63402 192.031 5.82996C192.11 6.01203 192.222 6.17808 192.361 6.31995Z" fill="#383838"/>
<path d="M188.691 6.31995C188.83 6.46515 188.996 6.58076 189.181 6.65991C189.377 6.74097 189.588 6.78177 189.801 6.77991C190.007 6.78211 190.212 6.74251 190.403 6.66345C190.594 6.5844 190.766 6.46756 190.911 6.31995C191.05 6.17808 191.162 6.01203 191.241 5.82996C191.33 5.6355 191.374 5.42372 191.371 5.20996C191.374 4.99941 191.33 4.79078 191.241 4.59992C191.166 4.41258 191.054 4.24241 190.911 4.09973C190.768 3.95706 190.598 3.8449 190.411 3.76996C190.218 3.68891 190.01 3.64808 189.801 3.64996C189.588 3.64811 189.377 3.68891 189.181 3.76996C188.999 3.8492 188.833 3.96099 188.691 4.09992C188.548 4.24493 188.433 4.41427 188.351 4.59992C188.27 4.79298 188.229 5.00059 188.231 5.20996C188.229 5.42257 188.27 5.63339 188.351 5.82996C188.434 6.01248 188.549 6.17848 188.691 6.31995" fill="#383838"/>
<path d="M232.861 13.2299C232.659 12.8248 232.414 12.4426 232.131 12.09C231.846 11.7256 231.509 11.4055 231.131 11.14C230.243 10.5488 229.197 10.2418 228.131 10.2599C227.646 10.2707 227.165 10.3481 226.701 10.4899C226.109 10.6741 225.561 10.977 225.091 11.3799C224.46 11.9246 223.92 12.5659 223.491 13.2799C222.897 14.2929 222.436 15.3786 222.121 16.5099C222.016 16.9063 221.784 17.2575 221.461 17.5099C221.166 17.7112 220.818 17.8192 220.461 17.8199H218.731H217.731L216.801 17.7299L215.961 17.59C215.701 17.59 215.471 17.4799 215.271 17.4299C215.772 16.9225 216.233 16.3776 216.651 15.7999C216.968 15.3633 217.248 14.9018 217.491 14.4199C217.668 14.0583 217.809 13.6797 217.911 13.2899C217.976 13.0077 218.013 12.7196 218.021 12.4299C218.028 11.9929 217.887 11.5663 217.621 11.2199C217.348 10.8827 217.007 10.6067 216.621 10.4099C216.181 10.1928 215.713 10.038 215.231 9.94995C214.733 9.85106 214.228 9.8008 213.721 9.79993C213.131 9.79983 212.543 9.84666 211.961 9.93994C211.438 10.0215 210.921 10.1317 210.411 10.27C209.97 10.3969 209.536 10.5471 209.111 10.7199C208.77 10.8494 208.436 10.9962 208.111 11.1599C207.964 11.2629 207.842 11.3958 207.751 11.5499C207.626 11.7469 207.519 11.9543 207.431 12.1699C207.331 12.3966 207.241 12.6266 207.161 12.8599C207.096 13.0601 207.043 13.2637 207.001 13.4699L207.301 13.8499L207.841 14.5699L208.341 15.2199L208.961 15.9799L209.661 16.7599C209.885 17.0054 210.126 17.2359 210.381 17.45C209.981 17.584 209.569 17.6778 209.151 17.7299C208.554 17.8138 207.953 17.8539 207.351 17.8499H196.451C196.245 17.8581 196.039 17.8345 195.841 17.7799C195.698 17.736 195.572 17.6486 195.481 17.5299C195.39 17.3879 195.332 17.2273 195.311 17.0599C195.293 16.8203 195.293 16.5796 195.311 16.34V8.41992H192.041V9.79993L190.481 10.2199C189.904 10.3867 189.337 10.5837 188.781 10.8099C188.218 11.049 187.67 11.3229 187.141 11.6299C186.631 11.9269 186.158 12.2827 185.731 12.6899C185.326 13.0859 184.988 13.5452 184.731 14.0499C184.485 14.5754 184.362 15.1499 184.371 15.7299C184.35 16.3608 184.499 16.9857 184.801 17.5399C185.081 18.0257 185.463 18.4453 185.921 18.77C186.388 19.0958 186.909 19.3361 187.461 19.4799C188.002 19.6254 188.56 19.6994 189.121 19.7C189.649 19.7055 190.176 19.6484 190.691 19.5299C191.232 19.4035 191.753 19.2051 192.241 18.9399C192.347 19.1702 192.492 19.3801 192.671 19.5599C192.865 19.7734 193.1 19.9467 193.361 20.0699C193.68 20.2221 194.015 20.3361 194.361 20.4099C194.835 20.5052 195.317 20.5488 195.801 20.5399H207.091C207.616 20.5395 208.141 20.5028 208.661 20.4299C209.15 20.359 209.634 20.2588 210.111 20.1299C210.549 20.0155 210.979 19.8753 211.401 19.71C211.781 19.5668 212.152 19.3998 212.511 19.21C212.761 19.34 213.061 19.4799 213.421 19.6299C213.828 19.8011 214.246 19.948 214.671 20.0699C215.171 20.2083 215.678 20.3185 216.191 20.4C216.769 20.4937 217.355 20.5405 217.941 20.5399H220.701C221.314 20.5739 221.926 20.4513 222.479 20.1837C223.032 19.916 223.507 19.5121 223.861 19.0099C224.081 19.1999 224.331 19.3999 224.601 19.5999C224.912 19.8173 225.248 19.9985 225.601 20.14C225.998 20.3085 226.409 20.439 226.831 20.5299C227.342 20.6268 227.861 20.6737 228.381 20.6699C229.118 20.6876 229.851 20.5479 230.531 20.2599C231.126 20.0082 231.664 19.6372 232.111 19.1699C232.539 18.7138 232.879 18.1812 233.111 17.5999C233.331 17.0115 233.443 16.3882 233.441 15.7599C233.437 15.3396 233.39 14.9207 233.301 14.5099C233.2 14.08 233.055 13.6612 232.871 13.2599M192.041 16.4199C191.686 16.6412 191.302 16.8128 190.901 16.9299C190.463 17.0621 190.008 17.1295 189.551 17.1299C189.295 17.1296 189.04 17.0994 188.791 17.0399C188.548 16.9863 188.317 16.888 188.111 16.7499C187.891 16.6047 187.713 16.4048 187.594 16.1699C187.474 15.9349 187.418 15.673 187.431 15.4099C187.429 15.0294 187.54 14.657 187.751 14.34C188.002 13.9892 188.322 13.6932 188.691 13.4699C189.145 13.1831 189.632 12.9515 190.141 12.7799C190.762 12.5656 191.397 12.3919 192.041 12.2599V16.4199ZM214.831 14.0099C214.729 14.2592 214.602 14.4971 214.451 14.7199C214.253 15.0103 214.029 15.2815 213.781 15.5299C213.473 15.8449 213.138 16.1326 212.781 16.39C212.477 16.1565 212.193 15.899 211.931 15.6199C211.631 15.3099 211.341 14.9899 211.071 14.6199C210.801 14.2499 210.541 13.9599 210.311 13.6199C210.081 13.2799 209.901 13.04 209.781 12.83C210.021 12.7145 210.268 12.6142 210.521 12.5299C210.781 12.4399 211.041 12.3699 211.311 12.2999L212.081 12.15C212.304 12.1369 212.528 12.1369 212.751 12.15C213.051 12.149 213.35 12.1859 213.641 12.2599C213.884 12.3203 214.12 12.411 214.341 12.5299C214.519 12.6314 214.673 12.7715 214.791 12.9399C214.897 13.0849 214.953 13.2604 214.951 13.4399C214.941 13.6277 214.904 13.813 214.841 13.9899M230.251 16.7499C230.128 17.0278 229.943 17.2741 229.711 17.4699C229.463 17.6619 229.176 17.7983 228.871 17.8699C228.515 17.9623 228.148 18.006 227.781 17.9999C227.495 17.9981 227.21 17.9679 226.931 17.9099C226.64 17.8511 226.352 17.7743 226.071 17.6799C225.813 17.5928 225.562 17.4858 225.321 17.3599C225.141 17.2764 224.976 17.165 224.831 17.0299C224.935 16.501 225.086 15.9824 225.281 15.4799C225.451 15.0056 225.676 14.5526 225.951 14.1299C226.178 13.7436 226.476 13.4042 226.831 13.1299C227.146 12.8961 227.528 12.7699 227.921 12.77C228.3 12.759 228.675 12.856 229.001 13.0499C229.307 13.2385 229.575 13.4828 229.791 13.77C229.997 14.0536 230.159 14.3672 230.271 14.7C230.373 14.996 230.427 15.3067 230.431 15.6199C230.441 15.9881 230.38 16.3548 230.251 16.7" fill="#383838"/>
<path d="M246.971 25.4699C247.362 25.63 247.8 25.63 248.191 25.4699C248.38 25.3935 248.55 25.2777 248.691 25.13C248.83 24.9859 248.944 24.8205 249.031 24.64C249.111 24.4466 249.152 24.2392 249.151 24.0299C249.154 23.8173 249.113 23.6063 249.031 23.41C248.947 23.2281 248.832 23.0622 248.691 22.92C248.55 22.7723 248.38 22.6564 248.191 22.58C247.8 22.4199 247.362 22.4199 246.971 22.58C246.782 22.6564 246.611 22.7723 246.471 22.92C246.33 23.0622 246.215 23.2281 246.131 23.41C246.049 23.6063 246.008 23.8173 246.011 24.0299C246.01 24.2392 246.051 24.4466 246.131 24.64C246.217 24.8205 246.332 24.9859 246.471 25.13C246.611 25.2777 246.782 25.3935 246.971 25.4699" fill="#383838"/>
<path d="M252.141 16.65C251.998 16.2538 251.891 15.8454 251.821 15.4299C251.741 14.9699 251.661 14.4299 251.591 13.9799C251.5 13.3925 251.328 12.8205 251.081 12.2799C250.835 11.7802 250.495 11.3322 250.081 10.96C249.675 10.5721 249.191 10.2755 248.661 10.09C248.056 9.86866 247.415 9.76019 246.771 9.76996C246.122 9.76528 245.475 9.8323 244.841 9.96991C244.261 10.0999 243.691 10.2499 243.121 10.4099V12.9299C243.675 12.7085 244.252 12.5476 244.841 12.45C245.279 12.3638 245.724 12.3169 246.171 12.3099C246.607 12.2859 247.039 12.4054 247.401 12.65C247.712 12.8868 247.965 13.191 248.141 13.5399C248.336 13.9298 248.481 14.3433 248.571 14.77C248.661 15.23 248.741 15.69 248.801 16.14C248.845 16.4372 248.908 16.7312 248.991 17.02C249.073 17.3019 249.187 17.5736 249.331 17.83H240.721C240.5 17.8308 240.281 17.797 240.071 17.7299C239.894 17.6676 239.738 17.5567 239.621 17.4099C239.488 17.2208 239.396 17.0063 239.351 16.7799C239.285 16.4507 239.255 16.1155 239.261 15.7799V2.90991H236.071V16.4399C236.063 17.001 236.138 17.5601 236.291 18.0999C236.427 18.5739 236.662 19.0137 236.981 19.39C237.315 19.7514 237.725 20.0348 238.181 20.2199C238.745 20.4239 239.341 20.5222 239.941 20.5099H253.351V17.83C253.207 17.8352 253.064 17.8093 252.931 17.754C252.798 17.6988 252.679 17.6156 252.581 17.5099C252.362 17.2585 252.196 16.9662 252.091 16.65" fill="#383838"/>
<path d="M7.04072 39.3299C6.89706 39.0127 6.70097 38.7219 6.4607 38.4699C6.23465 38.2211 5.98329 37.9966 5.7107 37.7999C5.44027 37.6004 5.15627 37.42 4.86073 37.2599L4.01069 36.7899C3.74069 36.6499 3.48073 36.4999 3.24073 36.3499C3.02667 36.2311 2.82555 36.0904 2.6407 35.9299C2.50182 35.8073 2.38068 35.6659 2.28071 35.5099C2.21151 35.3992 2.17674 35.2704 2.18074 35.1399C2.17415 34.9183 2.22224 34.6985 2.32075 34.4999C2.41144 34.3311 2.54181 34.187 2.70069 34.0799C2.88549 33.9617 3.08811 33.8739 3.30073 33.8199C3.86878 33.7098 4.45265 33.7098 5.0207 33.8199C5.31595 33.8722 5.60223 33.9665 5.87074 34.0999L6.48072 34.3999L6.86073 32.2999L6.4607 32.1499C6.07955 32.0048 5.68397 31.9009 5.28071 31.8399C4.40967 31.6872 3.51589 31.7247 2.66072 31.9499C2.19763 32.0743 1.7607 32.2809 1.37074 32.5599C0.958015 32.8373 0.615625 33.2071 0.370737 33.6399C0.11653 34.1091 -0.0109903 34.6364 0.000742329 35.1699C-0.0116081 35.7949 0.197335 36.4041 0.590708 36.8899C0.767555 37.1118 0.96886 37.3131 1.19074 37.4899C1.40074 37.6599 1.62073 37.8199 1.86073 37.9799L2.31074 38.2699C2.47074 38.3799 2.64075 38.4799 2.82075 38.5799L3.62074 38.9999C3.88594 39.1365 4.14006 39.2936 4.38075 39.4699C4.59288 39.622 4.77866 39.8078 4.93074 40.0199C5.04753 40.1675 5.10779 40.3518 5.10072 40.5399C5.10604 40.8131 5.05849 41.0848 4.9607 41.3399C4.87273 41.544 4.73939 41.7252 4.57075 41.8699C4.3953 42.0173 4.19087 42.1263 3.97071 42.1899C3.31387 42.3518 2.62756 42.3518 1.97071 42.1899C1.61173 42.1157 1.27153 41.9694 0.970713 41.7599L0.250742 41.2499L0.0407204 43.5599L0.350718 43.7199C0.569392 43.8262 0.796914 43.9132 1.03071 43.9799C1.26029 44.0485 1.49414 44.102 1.73072 44.1399C1.96072 44.1399 2.20074 44.2099 2.43074 44.2299H3.10072C3.59094 44.2301 4.07887 44.1628 4.55073 44.0299C5.02476 43.892 5.47375 43.6794 5.88075 43.3999C6.35848 43.0928 6.73429 42.6508 6.9607 42.1299C7.16982 41.6367 7.27534 41.1057 7.2707 40.5699C7.26819 40.3524 7.2515 40.1352 7.22071 39.9199C7.1847 39.6929 7.12089 39.4713 7.03071 39.2599" fill="#383838"/>
<path d="M15.2708 31.9399L10.2708 44.0999H12.4507L13.6407 41.0999H18.5608L19.7607 44.0999H22.0408L17.2208 31.9399H15.2708ZM14.4908 39.1299L16.1608 34.9199L17.8108 39.1299H14.4908Z" fill="#383838"/>
<path d="M31.4608 38.56C31.3724 38.3716 31.258 38.1965 31.1208 38.0399C31.4084 37.8951 31.6716 37.7061 31.9008 37.48C32.1765 37.2196 32.3975 36.9068 32.5508 36.56C32.7147 36.1814 32.7965 35.7724 32.7908 35.36C32.8004 34.8503 32.7086 34.3439 32.5208 33.87C32.3486 33.4486 32.0777 33.0747 31.7308 32.7799C31.387 32.4825 30.9801 32.2671 30.5408 32.15C30.0724 32.0179 29.5875 31.9539 29.1008 31.96H25.6108V44.12H27.7509V38.87H28.7509C28.8597 38.8758 28.9658 38.9066 29.0609 38.96C29.1676 39.027 29.2622 39.1115 29.3408 39.21C29.4377 39.3179 29.5185 39.4391 29.5808 39.57L29.8109 40.0299L31.5508 44.0999H33.8908L31.6708 39.0999L31.4608 38.56ZM27.7509 33.94H28.3608C28.7208 33.94 29.0708 33.94 29.3608 33.94C29.6069 33.9534 29.8481 34.0145 30.0709 34.12C30.2367 34.199 30.3731 34.3285 30.4608 34.49C30.5858 34.7479 30.641 35.0341 30.6208 35.32C30.6288 35.5612 30.57 35.8 30.4508 36.01C30.3373 36.1985 30.1794 36.3564 29.9908 36.4699C29.7711 36.6015 29.5312 36.6961 29.2808 36.75C28.9983 36.8122 28.7101 36.8457 28.4208 36.8499H27.7208L27.7509 33.94Z" fill="#383838"/>
<path d="M41.2507 31.9399L36.2507 44.0999H38.4307L39.6207 41.0999H44.5407L45.7407 44.0999H48.0407L43.2207 31.9399H41.2507ZM40.4807 39.1299L42.1407 34.9199L43.7907 39.1299H40.4807Z" fill="#383838"/>
<path d="M54.2308 36.9299L51.1108 31.9399H48.6108L53.1608 39.02V44.1099H55.3008V39.02L59.8608 31.9399H57.4308L54.2308 36.9299Z" fill="#383838"/>
<path d="M65.4009 31.9399L60.4009 44.0999H62.5809L63.7709 41.0999H68.6909L69.8909 44.0999H72.1409L67.3209 31.9399H65.4009ZM64.6309 39.1299L66.2909 34.9199L67.9509 39.1299H64.6309Z" fill="#383838"/>
<path d="M90.1509 36.8699H85.5609V31.9399H83.4209V44.0999H85.5609V38.8499H90.1509V44.0999H92.2909V31.9399H90.1509V36.8699Z" fill="#383838"/>
<path d="M100.831 31.9399L95.8308 44.0999H98.0408L99.2408 41.0999H104.151L105.361 44.0999H107.611L102.781 31.9399H100.831ZM100.061 39.1299L101.721 34.9199L103.371 39.1299H100.061Z" fill="#383838"/>
<path d="M117.441 40.9099L113.711 31.9399H111.151V44.0999H113.271V36.0499L116.631 44.0999H118.271L121.481 36.14V44.0999H123.621V31.9399H121.181L117.441 40.9099Z" fill="#383838"/>
<path d="M134.451 38.56C134.359 38.3736 134.245 38.199 134.111 38.04C134.397 37.8926 134.66 37.7039 134.891 37.48C135.163 37.2183 135.38 36.9057 135.531 36.56C135.695 36.1814 135.776 35.7724 135.771 35.36C135.78 34.8513 135.691 34.3456 135.511 33.87C135.335 33.4479 135.065 33.0717 134.721 32.77C134.368 32.4818 133.96 32.2706 133.521 32.15C133.056 32.0179 132.574 31.9539 132.091 31.96H128.601V44.12H130.731V38.87H131.731C131.839 38.8771 131.945 38.9079 132.041 38.96C132.148 39.027 132.242 39.1115 132.321 39.21C132.414 39.3204 132.495 39.4411 132.561 39.57C132.641 39.72 132.711 39.8799 132.781 40.0299L134.531 44.0999H136.861L134.651 39.0999L134.451 38.56ZM130.731 33.94H131.351C131.711 33.94 132.051 33.94 132.351 33.94C132.597 33.9534 132.838 34.0145 133.061 34.12C133.225 34.2017 133.361 34.3306 133.451 34.49C133.571 34.7494 133.622 35.0351 133.601 35.32C133.612 35.5603 133.557 35.799 133.441 36.01C133.325 36.1964 133.167 36.3537 132.981 36.4699C132.758 36.6032 132.515 36.6979 132.261 36.75C131.978 36.8128 131.69 36.8463 131.401 36.8499H130.701L130.731 33.94Z" fill="#383838"/>
<path d="M144.241 31.9399L139.241 44.0999H141.431L142.621 41.0999H147.541L148.741 44.0999H151.041L146.211 31.9399H144.241ZM143.471 39.1299L145.131 34.9199L146.781 39.1299H143.471Z" fill="#383838"/>
<path d="M169.121 39.6899C169.122 40.069 169.068 40.4463 168.961 40.8099C168.862 41.1046 168.706 41.3766 168.501 41.6099C168.303 41.8368 168.052 42.0119 167.771 42.1199C167.084 42.375 166.328 42.375 165.641 42.1199C165.361 41.9997 165.109 41.8226 164.901 41.5999C164.694 41.364 164.538 41.0884 164.441 40.7899C164.327 40.4345 164.273 40.0629 164.281 39.6899V31.9399H162.151V39.6899C162.148 40.1856 162.208 40.6796 162.331 41.1599C162.445 41.6147 162.634 42.0474 162.891 42.4399C163.159 42.8329 163.498 43.1721 163.891 43.4399C164.314 43.7319 164.784 43.9485 165.281 44.08C165.514 44.14 165.744 44.1899 165.971 44.2299C166.215 44.2705 166.463 44.2906 166.711 44.2899C166.965 44.2902 167.219 44.2702 167.471 44.2299C167.711 44.2299 167.951 44.14 168.181 44.08C168.684 43.9514 169.158 43.731 169.581 43.4299C169.973 43.1607 170.311 42.8217 170.581 42.4299C170.831 42.0364 171.013 41.6038 171.121 41.15C171.235 40.6717 171.292 40.1816 171.291 39.6899V31.9399H169.161L169.121 39.6899Z" fill="#383838"/>
<path d="M181.071 40.3799L176.191 31.9399H173.981V44.1099H176.121V35.8499L180.901 44.1099H183.201V31.9399H181.071V40.3799Z" fill="#383838"/>
<path d="M188.021 31.9399H185.891V44.1099H188.021V31.9399Z" fill="#383838"/>
<path d="M194.831 40.9799L191.601 31.9399H189.331L193.861 44.1099H195.751L200.371 31.9399H198.191L194.831 40.9799Z" fill="#383838"/>
<path d="M203.971 38.8499H208.101V36.8699H203.971V33.9299H208.331V31.9399H201.841V44.0999H208.511V42.1199H203.971V38.8499Z" fill="#383838"/>
<path d="M216.951 38.56C216.859 38.3736 216.745 38.199 216.611 38.04C216.896 37.895 217.159 37.7098 217.391 37.49C217.664 37.2234 217.884 36.9079 218.041 36.56C218.202 36.1807 218.284 35.7722 218.281 35.36C218.291 34.8502 218.2 34.3436 218.011 33.87C217.84 33.4452 217.569 33.0679 217.221 32.77C216.873 32.48 216.468 32.2685 216.031 32.15C215.563 32.0169 215.078 31.9529 214.591 31.96H211.101V44.12H213.241V38.87H214.241C214.35 38.8743 214.456 38.9052 214.551 38.96C214.659 39.0294 214.756 39.1135 214.841 39.21C214.931 39.3207 215.008 39.4415 215.071 39.57C215.151 39.72 215.231 39.88 215.301 40.03L217.041 44.1H219.381L217.161 39.1L216.951 38.56ZM213.241 33.94H213.851C214.211 33.94 214.561 33.94 214.851 33.94C215.094 33.952 215.332 34.0133 215.551 34.12C215.717 34.199 215.853 34.3286 215.941 34.49C216.066 34.7479 216.121 35.0341 216.101 35.32C216.114 35.5618 216.055 35.802 215.931 36.01C215.82 36.2007 215.661 36.3592 215.471 36.47C215.253 36.6049 215.012 36.6997 214.761 36.75C214.478 36.8122 214.19 36.8457 213.901 36.85H213.201L213.241 33.94Z" fill="#383838"/>
<path d="M227.751 39.3299C227.611 39.0132 227.418 38.7223 227.181 38.4699C226.955 38.2211 226.703 37.9966 226.431 37.7999C226.157 37.6003 225.87 37.4199 225.571 37.2599C225.291 37.0899 225.011 36.9399 224.731 36.7899C224.451 36.6399 224.201 36.4999 223.951 36.3499C223.74 36.2262 223.539 36.0858 223.351 35.9299C223.212 35.8102 223.093 35.6683 223.001 35.5099C222.932 35.3992 222.897 35.2704 222.901 35.1399C222.889 34.9179 222.938 34.6968 223.041 34.4999C223.131 34.3311 223.262 34.187 223.421 34.0799C223.603 33.9636 223.802 33.8759 224.011 33.8199C224.582 33.7098 225.169 33.7098 225.741 33.8199C226.033 33.8712 226.316 33.9655 226.581 34.0999L227.201 34.3999L227.581 32.2999L227.181 32.1499C226.797 32.0035 226.398 31.8996 225.991 31.8399C225.12 31.6872 224.226 31.7247 223.371 31.9499C222.911 32.0754 222.478 32.282 222.091 32.5599C221.696 32.8432 221.371 33.2125 221.141 33.6399C220.887 34.1091 220.759 34.6364 220.771 35.1699C220.759 35.5104 220.814 35.85 220.931 36.1699C221.03 36.4456 221.176 36.7025 221.361 36.9299C221.535 37.1541 221.737 37.3556 221.961 37.5299C222.171 37.6999 222.391 37.8599 222.631 38.0199L223.081 38.3099C223.241 38.4199 223.411 38.5199 223.591 38.6199L224.391 39.0399C224.655 39.1788 224.909 39.3359 225.151 39.5099C225.361 39.6648 225.546 39.8501 225.701 40.0599C225.813 40.2098 225.873 40.3926 225.871 40.5799C225.876 40.8531 225.829 41.1248 225.731 41.3799C225.639 41.5877 225.501 41.7721 225.328 41.9192C225.155 42.0664 224.951 42.1726 224.731 42.2299C224.074 42.3902 223.388 42.3902 222.731 42.2299C222.372 42.1549 222.032 42.0087 221.731 41.7999L221.011 41.2899L220.781 43.6499L221.091 43.8099C221.308 43.9205 221.536 44.0076 221.771 44.0699C221.997 44.1395 222.227 44.1929 222.461 44.2299C222.701 44.2299 222.931 44.2999 223.171 44.3199H223.841C224.331 44.3201 224.819 44.2528 225.291 44.1199C225.764 43.98 226.213 43.7674 226.621 43.4899C227.096 43.1801 227.471 42.7389 227.701 42.2199C227.905 41.7251 228.01 41.1951 228.011 40.6599C228.009 40.4457 227.992 40.2319 227.961 40.0199C227.925 39.7897 227.861 39.5647 227.771 39.3499" fill="#383838"/>
<path d="M232.431 31.9399H230.301V44.1099H232.431V31.9399Z" fill="#383838"/>
<path d="M234.031 33.9299H237.321V44.0999H239.461V33.9299H242.741V31.9399H234.031V33.9299Z" fill="#383838"/>
<path d="M251.701 31.9399L248.501 36.9299L245.381 31.9399H242.881L247.431 39.02V44.0999H249.561V39.02L254.131 31.9399H251.701Z" fill="#383838"/>
<path d="M273.801 4.96997H272.921V43.12H273.801V4.96997Z" fill="#383838"/>
<path d="M323.041 32.3301H306.141V17.9301C306.141 16.6143 305.622 15.3516 304.698 14.4156C303.773 13.4796 302.517 12.9458 301.201 12.9301H300.951V11.0801H301.201C303.004 11.0827 304.732 11.8 306.006 13.0746C307.281 14.3493 307.998 16.0774 308.001 17.8801V30.42H321.171V17.9301C321.174 16.1274 321.891 14.3993 323.166 13.1246C324.44 11.85 326.168 11.1327 327.971 11.1301V12.98C326.645 12.98 325.373 13.5068 324.435 14.4445C323.498 15.3822 322.971 16.654 322.971 17.98L323.041 32.3301Z" fill="#DE2B51"/>
<path d="M319.581 37.46L314.461 35.15L309.351 37.46L308.581 35.77L314.461 33.12L320.341 35.77L319.581 37.46Z" fill="#DE2B51"/>
<path d="M317.781 8.03003H315.931V27.3701H317.781V8.03003Z" fill="#DE2B51"/>
<path d="M313.001 8.03003H311.151V27.3701H313.001V8.03003Z" fill="#DE2B51"/>
<path d="M314.421 47.7501L299.511 39.8901C297.505 38.8383 295.827 37.2566 294.658 35.3171C293.489 33.3776 292.874 31.1546 292.881 28.8901V0.0400391H336.041V28.8901C336.045 31.1564 335.426 33.3804 334.254 35.3199C333.081 37.2594 331.399 38.8401 329.391 39.8901L314.421 47.7501ZM294.741 1.89008V28.8901C294.736 30.8152 295.26 32.7047 296.254 34.3532C297.249 36.0017 298.676 37.346 300.381 38.2401L314.381 45.6401L328.491 38.2401C330.2 37.3471 331.632 36.0021 332.63 34.3517C333.628 32.7013 334.154 30.8088 334.151 28.8801V1.88007L294.741 1.89008Z" fill="#DE2B51"/>
</svg>
